<svg xmlns="http://www.w3.org/2000/svg" viewBox="0 0 532.62 532.64"><defs><style>.cls-1{fill:#313131;stroke:#2b2c2b;stroke-miterlimit:10;opacity:0.41;isolation:isolate;}</style></defs><title>Asset 1</title><g id="Layer_2" data-name="Layer 2"><g id="Layer_1-2" data-name="Layer 1"><path id="Path_104" data-name="Path 104" class="cls-1" d="M532.12,266.33A265.37,265.37,0,0,1,430.39,475.44l.85-279.94-24.57,24.42-2.18,2.18L394,232.54v.07L256.66,369.92,126.05,245.31v-.08L90.79,210.35l0,48.55v.35l-.1,159.39,34.49.14.67-126.1L232.29,394.3h0l24.38,24.38L410.61,268l-.78,222.09a264.68,264.68,0,0,1-143.51,42C119.51,532.13.5,413.11.5,266.31A265.16,265.16,0,0,1,90.5,67V140l.1.09,2.09,2,139.59,133.2h0l24.39,24.38,174.4-174.4-24.38-24.38-150,150L110.76,111.72V50.77A264.55,264.55,0,0,1,266.3.5C413.11.52,532.12,119.53,532.12,266.33Z"/></g></g></svg>